<svg xmlns="http://www.w3.org/2000/svg" width="80" height="80" viewBox="0 0 80 80">
<g transform="matrix(0.26854911 0 0 0.26315435 0.86866104 -71.096194)" fill="#fff">
	<path d="m21.1 339.4c-24.4 36.9-31.7 85.3-16.3 127.2 12.9 38.8 40.8 72.9 77.9 90.9 23.2 11.7 49.4 19.5 75.6 15.8 33.6-3.5 67.4-15.6 92.4-39 38.5-36.9 51.8-99.7 39.6-137-8.2-25-18.7-36.2-18.7-36.2 7.4 19.8 12.7 40.7 12.8 62.1 0.9 38.1-14.7 77.6-43.7 103-15.6 12.5-34.6 20-53.4 26.5-20.1 6.4-41.9 8.9-62.4 3.3C86.2 547.7 49.3 524 30.7 488.6 12.4 456.3 3.1 416.7 15.5 380.6 26 345.7 53.3 313 86.4 297.4c16.9-8 47.9-14.4 47.9-14.4-40.5-5.9-92.8 26.5-113.1 56.3z"/>
	<path d="m188.2 270.2c-24 1.6-48.4 13.9-61.1 34.9-15 26.6-12.2 59-5.1 87.5 5.1 22.1 10.7 44.3 20.5 64.8 5.7 8.2 17.6 9.3 26.4 6.4 8.1-5 14.5-12.5 22.1-18.3 22.7-20.2 46.1-41.1 61.1-68 8.7-19.5 7.2-42 2.4-62.2-3.7-15.3-13.6-29.2-28-36-11.7-6.3-25.1-9.1-38.4-9.1zm-0.3 11.5c20.1-0.2 43.4 7.4 51.8 27.3 10.8 22.6 11.5 50.9-2.6 72.4-15.6 24.8-39.6 42.9-60.8 62.8-6 4.8-13.2 12.3-21.4 7.4-10.1-5.4-10.5-18.3-14.4-27.8-7.8-27.3-14.9-55.8-12.8-84.5 1.2-18.6 9.9-37.1 26.2-46.9 9.8-6.6 21.9-10.9 34-10.8z"/>
	<path d="m193.7 272.7c-4.1 2.1-6.6 6.8-10 10-25.7 29.8-41.1 68.9-40.1 108.5-0.1 16.2 3.1 32 5.1 48.1 3.8 1.4 5.8-0.4 5.2-5.1-3.6-33.1-4.2-67.7 8.8-99 8.4-21.7 21.5-41.6 38.4-57.6-3.5-0.3-3.7-5.2-7.3-5z"/>
	<path d="m228.2 283.7c-3.6-0.3-7.3 2.5-6.1 6.4 2.3 13.5 0.5 27.5-1.3 40.8-3.8 24.7-13.9 48.1-27.5 69-7.5 11.7-12.6 25.3-21.2 35.9-6.3 1.9 2.1 7.4 2.1 7.4 8.2-9.5 14.5-20.5 21.7-30.8 15.6-23.1 28.6-48.6 33-76.4 3.4-17.3 4.8-35.3 1.3-52.7-0.7 0.1-1.4 0.3-2 0.4z"/>
	<path d="m205.2 275.1c-3.8 3.8-4.7 10.2-7.4 14.9-17.5 40.6-26.3 69.1-35.3 112.2-1.5 7.3-3 29.1-4.6 36.3 0 0 5.8 1.9 6.3-3.1 2.7-12.9 5.6-27.8 8.7-40.7 9.5-39.5 21.4-76.5 38.5-113.4 1.2-3.8-2.8-6.8-6.2-6.3z"/>
	<path d="m152.2 400.4c-8.5 0.7-16.8 2.9-25.1 4.7-0.7 4.4 2.9 9.3 7.6 7.4 21.4-6.5 46.3 0.7 61.9 16.4 0.7 7.1 13.9 3.3 10.1-3-13.9-15.2-33.8-24.9-54.4-25.5z"/>
	<path d="m158.1 430.7c-7.7-0.8-15.9 3.8-18.6 12.8 9.4-0.4 19.1-7.2 28.2-1.3 4.2 2.1 8.2 5.7 9.9 10.9 4.1 1.6 8.1-3.9 5.4-8.1-5.7-9.4-15.2-14.7-24.9-14.2z"/>
	<path d="m176.3 500.5c-20-0.2-39.6 8.3-56.2 19.4-5.5 3.2-10.8 6.6-16.1 10.1 35.9-10.9 53-21.4 74.8-20.1 16.1-1.8 28.1 3.8 49.8 7.5-15.7-12-33.3-21-52.3-17z"/>
	<path d="m231.4 484.1c-18.1 0-34.9 9.5-47.4 22.1 33.6-10.6 51.2-18.9 76-8 3 2.9 11.7 2.2 10-3.4-4.8-5.9-13.1-7.5-20.1-9.3-6.1-1.2-12.3-1.6-18.5-1.5z"/>
	<path d="m78 454c-11.9-1-24.4 11.9-19.2 23.7 3.8 10.1 16.5 14 26 9.7 7.3-2.4 12-10 10.5-17.6-0.7-8.6-8.6-15.9-17.3-15.7zm-0.7 8.3c8-0.5 13.2 11.4 6 15.8-6.2 3.5-17.1 1.3-16.1-7.5 1.1-4.1 6-7.8 10.2-8.2z"/>
	<path d="m123.3 444.8c-8.6 1.3-16.9 5.4-23.5 11-1.5 1.6-5.4 5.2-4.4 5.8 8.1 5.5 35.9-17.3 28-16.9z"/>
	<path d="m93.5 406.5c-3.4 0.9-4.7 5.4-6.2 8-3.9 10.9-8.6 22.5-7 34.2 2.8 4 6.6-1.6 7.3-4.4 0.9-4.5 5.9-37.9 5.9-37.9z"/>
	<path d="m33.8 372.5c-4.4 1.4 0.8 16.4 2 19.4 7.9 22 9.6 22.8 14.5 35.4 4.9 12.6 14.3 25.4 14 21.1-0.5-9.4-4.6-18.7-7.7-27.1-3.1-8.4-22.7-48.7-22.7-48.7z"/>
	<path d="m27.9 463.2c-1.7 0.8-7.7 2.1-4.6 3.2 8.7 4.5 18.8 4 28.2 3.9 3.3-0.1 3.4-4.6 0.4-5.4-6.5-2.3-13.7-2.9-20.5-2.5-1.2 0.2-2.4 0.4-3.5 0.7z"/>
	<path d="m65.9 489.9c-6.5 1.2-7.7 7.1-10.8 10.7-3 4.5-4.4 9.5-3.8 14.5 10.2-5.4 14.3-14.4 16.8-22.7 0.1-1-0.4-2.4-2.2-2.5z"/>
	<path d="m99 486.8c6.9 8.3 17.8 12.2 28.4 12.5-6.4-10.6-18.6-17.3-31-15.9-2.6-0.7 2.6 3 2.6 3.4z"/>
</g>
</svg>